<svg xmlns="http://www.w3.org/2000/svg" viewBox="0 0 993.79 191.03"><title>killjoy</title><path d="M19,33.29a3.07,3.07,0,0,1,.92-2.24,3,3,0,0,1,2.23-.91h27q3.41,0,3.41,3.15V210.66q0,3.15-3.41,3.15h-27A3.14,3.14,0,0,1,19,210.66ZM63.1,120.14,129,34.33a10.69,10.69,0,0,1,8.66-4.19h33.32a2.33,2.33,0,0,1,2.1,3.67L105.34,122l67.44,88.17a2.12,2.12,0,0,1,.39,2.49,2.34,2.34,0,0,1-2.23,1.18H137.62a10.68,10.68,0,0,1-8.66-4.2L63.1,124.07A3.25,3.25,0,0,1,63.1,120.14Z" transform="translate(-19.01 -26.45)"></path><path d="M196.91,30.14h27q3.41,0,3.41,3.15V210.66q0,3.15-3.41,3.15h-27a3.12,3.12,0,0,1-3.14-3.15V33.29a3.11,3.11,0,0,1,3.14-3.15Z" transform="translate(-19.01 -26.45)"></path><path d="M268.28,30.14h27q3.4,0,3.41,3.15v147.2h73.47a2.3,2.3,0,0,1,2.23,1.31,2.1,2.1,0,0,1-.13,2.36l-19.68,25.45a10.45,10.45,0,0,1-8.4,4.2H268.28a3,3,0,0,1-2.23-.92,3,3,0,0,1-.92-2.23V33.29a3.07,3.07,0,0,1,.92-2.24A3,3,0,0,1,268.28,30.14Z" transform="translate(-19.01 -26.45)"></path><path d="M398.17,30.14h27q3.4,0,3.41,3.15v147.2h73.47a2.32,2.32,0,0,1,2.24,1.31,2.1,2.1,0,0,1-.14,2.36l-19.68,25.45a10.42,10.42,0,0,1-8.39,4.2H398.17a3.14,3.14,0,0,1-3.15-3.15V33.29a3.12,3.12,0,0,1,3.15-3.15Z" transform="translate(-19.01 -26.45)"></path><path d="M508.11,210.14l64.55-84.23V33.29a3.12,3.12,0,0,1,3.15-3.15h27q3.4,0,3.41,3.15V135.36a10.06,10.06,0,0,1-2.36,6.56l-52,67.69a10.69,10.69,0,0,1-8.66,4.2H509.94a2.39,2.39,0,0,1-2.09-1.18A1.94,1.94,0,0,1,508.11,210.14Z" transform="translate(-19.01 -26.45)"></path><path d="M636.68,121.19a95.44,95.44,0,0,1,27.68-67.83,92.81,92.81,0,0,1,67.31-26.9A94.82,94.82,0,0,1,799,55.06,98.32,98.32,0,0,1,819,85.63a91.57,91.57,0,0,1,7.09,37.13A94.85,94.85,0,0,1,818.26,160a96.85,96.85,0,0,1-20.6,30.18,94,94,0,0,1-30.31,20.07,95.91,95.91,0,0,1-37.26,7.22A91.42,91.42,0,0,1,693.23,210a92.42,92.42,0,0,1-29.79-20.47A94,94,0,0,1,643.76,159,100.16,100.16,0,0,1,636.68,121.19Zm33.59,1.31a60.93,60.93,0,0,0,5,24.4,66.68,66.68,0,0,0,13.38,20.21,62.92,62.92,0,0,0,19.42,13.64,55.15,55.15,0,0,0,47-.52,64,64,0,0,0,19.29-14,65.08,65.08,0,0,0,13-20.47,61.27,61.27,0,0,0,4.46-24.53,61,61,0,0,0-5-24.41,65.42,65.42,0,0,0-13.38-20.07A63.69,63.69,0,0,0,753.84,63.2a57,57,0,0,0-23.49-5A57.88,57.88,0,0,0,707,63.59,60.5,60.5,0,0,0,687.85,77.5,66.94,66.94,0,0,0,675,97.83,64.5,64.5,0,0,0,670.27,122.5Z" transform="translate(-19.01 -26.45)"></path><path d="M818.78,29.61H852.1a10.68,10.68,0,0,1,8.66,4.2l53.79,70.06,53.8-70.06a10.66,10.66,0,0,1,8.65-4.2h33.33a2.3,2.3,0,0,1,2.23,1.31,1.91,1.91,0,0,1-.39,2.37L877.29,209.09a10.67,10.67,0,0,1-8.65,4.2H835.31a2.43,2.43,0,0,1-2.1-1.18,2,2,0,0,1,.26-2.5l59.31-77.4L816.94,33.29a1.77,1.77,0,0,1-.26-2.37A2.38,2.38,0,0,1,818.78,29.61Z" transform="translate(-19.01 -26.45)"></path></svg>